<mxfile host="app.diagrams.net" agent="Mozilla/5.0 (Windows NT 10.0; Win64; x64) AppleWebKit/537.36 (KHTML, like Gecko) Chrome/140.0.0.0 Safari/537.36 Edg/140.0.0.0" version="28.2.5">
  <diagram name="Page-1" id="TU2J7SH3Ps_nAos_VsKn">
    <mxGraphModel grid="1" page="1" gridSize="10" guides="1" tooltips="1" connect="1" arrows="1" fold="1" pageScale="1" pageWidth="850" pageHeight="1100" math="0" shadow="0">
      <root>
        <mxCell id="0" />
        <mxCell id="1" parent="0" />
        <mxCell id="gAeeQ_TgaxbV7_P4nZwF-62" value="" style="whiteSpace=wrap;html=1;aspect=fixed;strokeWidth=0;" vertex="1" parent="1">
          <mxGeometry width="850" height="850" as="geometry" />
        </mxCell>
        <mxCell id="gAeeQ_TgaxbV7_P4nZwF-16" style="edgeStyle=orthogonalEdgeStyle;rounded=0;orthogonalLoop=1;jettySize=auto;html=1;exitX=0.5;exitY=0.5;exitDx=0;exitDy=0;exitPerimeter=0;strokeColor=#00CCCC;" edge="1" parent="1" source="gAeeQ_TgaxbV7_P4nZwF-1" target="gAeeQ_TgaxbV7_P4nZwF-6">
          <mxGeometry relative="1" as="geometry">
            <Array as="points">
              <mxPoint x="80" y="180" />
              <mxPoint x="80" y="200" />
            </Array>
          </mxGeometry>
        </mxCell>
        <mxCell id="gAeeQ_TgaxbV7_P4nZwF-19" style="edgeStyle=orthogonalEdgeStyle;rounded=0;orthogonalLoop=1;jettySize=auto;html=1;exitX=0.5;exitY=0.5;exitDx=0;exitDy=0;exitPerimeter=0;entryX=0;entryY=0.5;entryDx=0;entryDy=0;strokeColor=#00CCCC;" edge="1" parent="1" source="gAeeQ_TgaxbV7_P4nZwF-1" target="gAeeQ_TgaxbV7_P4nZwF-7">
          <mxGeometry relative="1" as="geometry">
            <Array as="points">
              <mxPoint x="80" y="180" />
              <mxPoint x="80" y="280" />
            </Array>
          </mxGeometry>
        </mxCell>
        <mxCell id="gAeeQ_TgaxbV7_P4nZwF-22" style="edgeStyle=orthogonalEdgeStyle;rounded=0;orthogonalLoop=1;jettySize=auto;html=1;exitX=0.5;exitY=0.5;exitDx=0;exitDy=0;exitPerimeter=0;strokeColor=#00CCCC;" edge="1" parent="1" source="gAeeQ_TgaxbV7_P4nZwF-1" target="gAeeQ_TgaxbV7_P4nZwF-3">
          <mxGeometry relative="1" as="geometry">
            <Array as="points">
              <mxPoint x="80" y="180" />
              <mxPoint x="80" y="160" />
            </Array>
          </mxGeometry>
        </mxCell>
        <mxCell id="gAeeQ_TgaxbV7_P4nZwF-32" style="edgeStyle=orthogonalEdgeStyle;rounded=0;orthogonalLoop=1;jettySize=auto;html=1;exitX=0.5;exitY=0.5;exitDx=0;exitDy=0;exitPerimeter=0;entryX=0;entryY=0.5;entryDx=0;entryDy=0;strokeColor=#00CCCC;" edge="1" parent="1" source="gAeeQ_TgaxbV7_P4nZwF-1" target="gAeeQ_TgaxbV7_P4nZwF-9">
          <mxGeometry relative="1" as="geometry">
            <Array as="points">
              <mxPoint x="80" y="180" />
              <mxPoint x="80" y="235" />
            </Array>
          </mxGeometry>
        </mxCell>
        <mxCell id="gAeeQ_TgaxbV7_P4nZwF-1" value="customer" style="shape=umlActor;verticalLabelPosition=bottom;verticalAlign=top;html=1;outlineConnect=0;" vertex="1" parent="1">
          <mxGeometry x="20" y="150" width="30" height="60" as="geometry" />
        </mxCell>
        <mxCell id="gAeeQ_TgaxbV7_P4nZwF-26" style="edgeStyle=orthogonalEdgeStyle;rounded=0;orthogonalLoop=1;jettySize=auto;html=1;exitX=0.5;exitY=0.5;exitDx=0;exitDy=0;exitPerimeter=0;entryX=1;entryY=0.5;entryDx=0;entryDy=0;strokeColor=#BB3DCC;" edge="1" parent="1" source="gAeeQ_TgaxbV7_P4nZwF-2" target="gAeeQ_TgaxbV7_P4nZwF-6">
          <mxGeometry relative="1" as="geometry">
            <Array as="points">
              <mxPoint x="355" y="200" />
            </Array>
          </mxGeometry>
        </mxCell>
        <mxCell id="gAeeQ_TgaxbV7_P4nZwF-35" style="edgeStyle=orthogonalEdgeStyle;rounded=0;orthogonalLoop=1;jettySize=auto;html=1;exitX=0.5;exitY=0.5;exitDx=0;exitDy=0;exitPerimeter=0;entryX=1;entryY=0.5;entryDx=0;entryDy=0;strokeColor=#BB3DCC;" edge="1" parent="1" source="gAeeQ_TgaxbV7_P4nZwF-2" target="gAeeQ_TgaxbV7_P4nZwF-7">
          <mxGeometry relative="1" as="geometry">
            <Array as="points">
              <mxPoint x="355" y="280" />
            </Array>
          </mxGeometry>
        </mxCell>
        <mxCell id="gAeeQ_TgaxbV7_P4nZwF-38" style="edgeStyle=orthogonalEdgeStyle;rounded=0;orthogonalLoop=1;jettySize=auto;html=1;exitX=0.5;exitY=0.5;exitDx=0;exitDy=0;exitPerimeter=0;entryX=0.5;entryY=0;entryDx=0;entryDy=0;strokeColor=#BB3DCC;" edge="1" parent="1" source="gAeeQ_TgaxbV7_P4nZwF-2" target="gAeeQ_TgaxbV7_P4nZwF-8">
          <mxGeometry relative="1" as="geometry" />
        </mxCell>
        <mxCell id="gAeeQ_TgaxbV7_P4nZwF-68" style="edgeStyle=orthogonalEdgeStyle;rounded=0;orthogonalLoop=1;jettySize=auto;html=1;exitX=0.5;exitY=0.5;exitDx=0;exitDy=0;exitPerimeter=0;strokeColor=#BB3DCC;" edge="1" parent="1" source="gAeeQ_TgaxbV7_P4nZwF-2">
          <mxGeometry relative="1" as="geometry">
            <mxPoint x="260" y="120" as="targetPoint" />
            <Array as="points">
              <mxPoint x="355" y="100" />
              <mxPoint x="260" y="100" />
            </Array>
          </mxGeometry>
        </mxCell>
        <mxCell id="gAeeQ_TgaxbV7_P4nZwF-2" value="visitor" style="shape=umlActor;verticalLabelPosition=bottom;verticalAlign=top;html=1;outlineConnect=0;" vertex="1" parent="1">
          <mxGeometry x="340" y="20" width="30" height="60" as="geometry" />
        </mxCell>
        <mxCell id="gAeeQ_TgaxbV7_P4nZwF-3" value="Manage profile" style="ellipse;whiteSpace=wrap;html=1;" vertex="1" parent="1">
          <mxGeometry x="390" y="140" width="130" height="40" as="geometry" />
        </mxCell>
        <mxCell id="gAeeQ_TgaxbV7_P4nZwF-5" value="Register/login" style="ellipse;whiteSpace=wrap;html=1;" vertex="1" parent="1">
          <mxGeometry x="130" y="100" width="130" height="40" as="geometry" />
        </mxCell>
        <mxCell id="gAeeQ_TgaxbV7_P4nZwF-6" value="Read Blog" style="ellipse;whiteSpace=wrap;html=1;" vertex="1" parent="1">
          <mxGeometry x="120" y="180" width="130" height="40" as="geometry" />
        </mxCell>
        <mxCell id="gAeeQ_TgaxbV7_P4nZwF-7" value="View Services" style="ellipse;whiteSpace=wrap;html=1;" vertex="1" parent="1">
          <mxGeometry x="130" y="260" width="130" height="40" as="geometry" />
        </mxCell>
        <mxCell id="gAeeQ_TgaxbV7_P4nZwF-8" value="View Stylists" style="ellipse;whiteSpace=wrap;html=1;" vertex="1" parent="1">
          <mxGeometry x="290" y="310" width="130" height="40" as="geometry" />
        </mxCell>
        <mxCell id="gAeeQ_TgaxbV7_P4nZwF-9" value="Book Appointment" style="ellipse;whiteSpace=wrap;html=1;" vertex="1" parent="1">
          <mxGeometry x="380" y="210" width="130" height="50" as="geometry" />
        </mxCell>
        <mxCell id="gAeeQ_TgaxbV7_P4nZwF-14" value="Extends" style="endArrow=block;endSize=16;endFill=0;html=1;rounded=0;strokeColor=#FF0000;fontStyle=1;fontSize=14;" edge="1" parent="1" source="gAeeQ_TgaxbV7_P4nZwF-1" target="gAeeQ_TgaxbV7_P4nZwF-2">
          <mxGeometry width="160" relative="1" as="geometry">
            <mxPoint x="340" y="250" as="sourcePoint" />
            <mxPoint x="510" y="250" as="targetPoint" />
            <Array as="points">
              <mxPoint x="35" y="50" />
              <mxPoint x="170" y="50" />
              <mxPoint x="300" y="50" />
            </Array>
          </mxGeometry>
        </mxCell>
        <mxCell id="gAeeQ_TgaxbV7_P4nZwF-27" style="edgeStyle=orthogonalEdgeStyle;rounded=0;orthogonalLoop=1;jettySize=auto;html=1;exitX=0.5;exitY=0.5;exitDx=0;exitDy=0;exitPerimeter=0;entryX=0;entryY=0.35;entryDx=0;entryDy=0;entryPerimeter=0;strokeColor=#00CCCC;" edge="1" parent="1" source="gAeeQ_TgaxbV7_P4nZwF-1" target="gAeeQ_TgaxbV7_P4nZwF-5">
          <mxGeometry relative="1" as="geometry">
            <Array as="points">
              <mxPoint x="80" y="180" />
              <mxPoint x="80" y="114" />
            </Array>
          </mxGeometry>
        </mxCell>
        <mxCell id="gAeeQ_TgaxbV7_P4nZwF-46" style="edgeStyle=orthogonalEdgeStyle;rounded=0;orthogonalLoop=1;jettySize=auto;html=1;exitX=0.5;exitY=0.5;exitDx=0;exitDy=0;exitPerimeter=0;entryX=0.5;entryY=1;entryDx=0;entryDy=0;strokeColor=#009900;" edge="1" parent="1" source="gAeeQ_TgaxbV7_P4nZwF-39" target="gAeeQ_TgaxbV7_P4nZwF-44">
          <mxGeometry relative="1" as="geometry">
            <Array as="points">
              <mxPoint x="610" y="550" />
              <mxPoint x="610" y="480" />
            </Array>
          </mxGeometry>
        </mxCell>
        <mxCell id="gAeeQ_TgaxbV7_P4nZwF-48" style="edgeStyle=orthogonalEdgeStyle;rounded=0;orthogonalLoop=1;jettySize=auto;html=1;exitX=0.5;exitY=0.5;exitDx=0;exitDy=0;exitPerimeter=0;entryX=1;entryY=0.5;entryDx=0;entryDy=0;strokeColor=#009900;" edge="1" parent="1" source="gAeeQ_TgaxbV7_P4nZwF-39" target="gAeeQ_TgaxbV7_P4nZwF-43">
          <mxGeometry relative="1" as="geometry">
            <Array as="points">
              <mxPoint x="610" y="550" />
              <mxPoint x="610" y="510" />
            </Array>
          </mxGeometry>
        </mxCell>
        <mxCell id="gAeeQ_TgaxbV7_P4nZwF-49" style="edgeStyle=orthogonalEdgeStyle;rounded=0;orthogonalLoop=1;jettySize=auto;html=1;exitX=0.5;exitY=0.5;exitDx=0;exitDy=0;exitPerimeter=0;entryX=1;entryY=0.5;entryDx=0;entryDy=0;strokeColor=#009900;" edge="1" parent="1" source="gAeeQ_TgaxbV7_P4nZwF-39" target="gAeeQ_TgaxbV7_P4nZwF-42">
          <mxGeometry relative="1" as="geometry">
            <Array as="points">
              <mxPoint x="610" y="550" />
              <mxPoint x="610" y="620" />
            </Array>
          </mxGeometry>
        </mxCell>
        <mxCell id="gAeeQ_TgaxbV7_P4nZwF-52" style="edgeStyle=orthogonalEdgeStyle;rounded=0;orthogonalLoop=1;jettySize=auto;html=1;exitX=0.5;exitY=0.5;exitDx=0;exitDy=0;exitPerimeter=0;entryX=0;entryY=0.5;entryDx=0;entryDy=0;strokeColor=#009900;" edge="1" parent="1" source="gAeeQ_TgaxbV7_P4nZwF-39" target="gAeeQ_TgaxbV7_P4nZwF-41">
          <mxGeometry relative="1" as="geometry">
            <Array as="points">
              <mxPoint x="610" y="550" />
              <mxPoint x="610" y="690" />
            </Array>
          </mxGeometry>
        </mxCell>
        <mxCell id="gAeeQ_TgaxbV7_P4nZwF-39" value="Stylist" style="shape=umlActor;verticalLabelPosition=bottom;verticalAlign=top;html=1;outlineConnect=0;" vertex="1" parent="1">
          <mxGeometry x="730" y="520" width="30" height="60" as="geometry" />
        </mxCell>
        <mxCell id="gAeeQ_TgaxbV7_P4nZwF-53" style="edgeStyle=orthogonalEdgeStyle;rounded=0;orthogonalLoop=1;jettySize=auto;html=1;exitX=0.5;exitY=0.5;exitDx=0;exitDy=0;exitPerimeter=0;entryX=0;entryY=0.5;entryDx=0;entryDy=0;strokeColor=light-dark(#0000CC,#0000CC);" edge="1" parent="1" source="gAeeQ_TgaxbV7_P4nZwF-40" target="gAeeQ_TgaxbV7_P4nZwF-43">
          <mxGeometry relative="1" as="geometry" />
        </mxCell>
        <mxCell id="gAeeQ_TgaxbV7_P4nZwF-56" style="edgeStyle=orthogonalEdgeStyle;rounded=0;orthogonalLoop=1;jettySize=auto;html=1;exitX=0.5;exitY=0.5;exitDx=0;exitDy=0;exitPerimeter=0;entryX=0;entryY=0.5;entryDx=0;entryDy=0;strokeColor=light-dark(#0000CC,#0000CC);" edge="1" parent="1" source="gAeeQ_TgaxbV7_P4nZwF-40" target="gAeeQ_TgaxbV7_P4nZwF-42">
          <mxGeometry relative="1" as="geometry">
            <Array as="points">
              <mxPoint x="250" y="520" />
              <mxPoint x="250" y="620" />
            </Array>
          </mxGeometry>
        </mxCell>
        <mxCell id="gAeeQ_TgaxbV7_P4nZwF-57" style="edgeStyle=orthogonalEdgeStyle;rounded=0;orthogonalLoop=1;jettySize=auto;html=1;exitX=0.5;exitY=0.5;exitDx=0;exitDy=0;exitPerimeter=0;entryX=0.5;entryY=1;entryDx=0;entryDy=0;strokeColor=light-dark(#0000CC,#0000CC);" edge="1" parent="1" source="gAeeQ_TgaxbV7_P4nZwF-40" target="gAeeQ_TgaxbV7_P4nZwF-41">
          <mxGeometry relative="1" as="geometry">
            <Array as="points">
              <mxPoint x="250" y="520" />
              <mxPoint x="250" y="730" />
              <mxPoint x="725" y="730" />
            </Array>
          </mxGeometry>
        </mxCell>
        <mxCell id="gAeeQ_TgaxbV7_P4nZwF-58" style="edgeStyle=orthogonalEdgeStyle;rounded=0;orthogonalLoop=1;jettySize=auto;html=1;exitX=0.5;exitY=0.5;exitDx=0;exitDy=0;exitPerimeter=0;entryX=1;entryY=0.5;entryDx=0;entryDy=0;strokeColor=light-dark(#0000CC,#0000CC);" edge="1" parent="1" source="gAeeQ_TgaxbV7_P4nZwF-40" target="gAeeQ_TgaxbV7_P4nZwF-45">
          <mxGeometry relative="1" as="geometry">
            <Array as="points">
              <mxPoint x="250" y="520" />
              <mxPoint x="250" y="730" />
            </Array>
          </mxGeometry>
        </mxCell>
        <mxCell id="gAeeQ_TgaxbV7_P4nZwF-40" value="Admin" style="shape=umlActor;verticalLabelPosition=bottom;verticalAlign=top;html=1;outlineConnect=0;" vertex="1" parent="1">
          <mxGeometry x="130" y="490" width="30" height="60" as="geometry" />
        </mxCell>
        <mxCell id="gAeeQ_TgaxbV7_P4nZwF-41" value="Manage Appointments" style="ellipse;whiteSpace=wrap;html=1;" vertex="1" parent="1">
          <mxGeometry x="660" y="670" width="130" height="40" as="geometry" />
        </mxCell>
        <mxCell id="gAeeQ_TgaxbV7_P4nZwF-42" value="Manage Services" style="ellipse;whiteSpace=wrap;html=1;" vertex="1" parent="1">
          <mxGeometry x="380" y="600" width="130" height="40" as="geometry" />
        </mxCell>
        <mxCell id="gAeeQ_TgaxbV7_P4nZwF-43" value="Manage Blogs" style="ellipse;whiteSpace=wrap;html=1;" vertex="1" parent="1">
          <mxGeometry x="340" y="490" width="130" height="40" as="geometry" />
        </mxCell>
        <mxCell id="gAeeQ_TgaxbV7_P4nZwF-44" value="Send Confirmation" style="ellipse;whiteSpace=wrap;html=1;" vertex="1" parent="1">
          <mxGeometry x="550" y="440" width="130" height="40" as="geometry" />
        </mxCell>
        <mxCell id="gAeeQ_TgaxbV7_P4nZwF-45" value="Manage Stylists" style="ellipse;whiteSpace=wrap;html=1;" vertex="1" parent="1">
          <mxGeometry x="10" y="710" width="130" height="40" as="geometry" />
        </mxCell>
        <mxCell id="gAeeQ_TgaxbV7_P4nZwF-59" value="&amp;lt;&amp;lt;include&amp;gt;&amp;gt;" style="html=1;verticalAlign=bottom;endArrow=open;dashed=1;endSize=8;curved=0;rounded=0;exitX=0.5;exitY=0;exitDx=0;exitDy=0;entryX=1;entryY=0.5;entryDx=0;entryDy=0;fontSize=15;fontStyle=1;strokeColor=#FF0000;" edge="1" parent="1" source="gAeeQ_TgaxbV7_P4nZwF-44" target="gAeeQ_TgaxbV7_P4nZwF-9">
          <mxGeometry relative="1" as="geometry">
            <mxPoint x="460" y="330" as="sourcePoint" />
            <mxPoint x="380" y="330" as="targetPoint" />
            <Array as="points">
              <mxPoint x="615" y="235" />
            </Array>
          </mxGeometry>
        </mxCell>
        <mxCell id="gAeeQ_TgaxbV7_P4nZwF-60" value="&amp;lt;&amp;lt;include&amp;gt;&amp;gt;" style="html=1;verticalAlign=bottom;endArrow=open;dashed=1;endSize=8;curved=0;rounded=0;exitX=0.5;exitY=0;exitDx=0;exitDy=0;fontStyle=1;fontSize=15;fillColor=#fff2cc;strokeColor=#FF0000;entryX=1;entryY=0.5;entryDx=0;entryDy=0;" edge="1" parent="1" source="gAeeQ_TgaxbV7_P4nZwF-44" target="gAeeQ_TgaxbV7_P4nZwF-5">
          <mxGeometry x="0.0011" relative="1" as="geometry">
            <mxPoint x="460" y="330" as="sourcePoint" />
            <mxPoint x="440" y="120" as="targetPoint" />
            <Array as="points">
              <mxPoint x="615" y="120" />
            </Array>
            <mxPoint as="offset" />
          </mxGeometry>
        </mxCell>
      </root>
    </mxGraphModel>
  </diagram>
</mxfile>
